<?xml version="1.0" encoding="UTF-8"?>
<svg version="1.1" xmlns="http://www.w3.org/2000/svg" width="500" height="250">
<path d="M0 0 C1.85582429 4.06853787 2.52367295 7.8417509 3.0703125 12.26953125 C3.19924393 13.29103523 3.19924393 13.29103523 3.33078003 14.33317566 C3.60182865 16.49221973 3.86354849 18.65227494 4.125 20.8125 C4.30797714 22.28327997 4.49156454 23.75398415 4.67578125 25.22460938 C5.12425239 28.81555642 5.56436888 32.40747001 6 36 C6.23710693 34.9805127 6.47421387 33.96102539 6.71850586 32.91064453 C7.59747912 29.13433377 8.47975396 25.35880088 9.36303711 21.58349609 C9.74512637 19.94829048 10.12631558 18.31287429 10.5065918 16.67724609 C11.05281819 14.32854383 11.60225916 11.98061372 12.15234375 9.6328125 C12.3221727 8.89942657 12.49200165 8.16604065 12.66697693 7.41043091 C13.88612829 2.22774341 13.88612829 2.22774341 15 0 C17.97 0 20.94 0 24 0 C27.00076682 7.3126379 28.82083421 14.83069252 30.6875 22.5 C31.01062615 23.81260878 31.33419045 25.12510978 31.65820312 26.4375 C32.44310558 29.62396969 33.2235731 32.81145653 34 36 C34.11069824 35.01604248 34.22139648 34.03208496 34.33544922 33.01831055 C34.74846955 29.36646172 35.17217853 25.71591897 35.59912109 22.06567383 C35.78237833 20.48593155 35.96273865 18.90585041 36.14013672 17.32543945 C36.39569622 15.05324425 36.66166433 12.78247322 36.9296875 10.51171875 C37.04544632 9.45219246 37.04544632 9.45219246 37.1635437 8.3712616 C37.58700086 4.87233811 38.00531373 2.99202941 40 0 C42.56640625 -0.328125 42.56640625 -0.328125 45.5625 -0.25 C47.04943359 -0.22679688 47.04943359 -0.22679688 48.56640625 -0.203125 C51 0 51 0 52 1 C51.77599922 8.95139717 50.5478978 16.88771456 49.40625 24.75 C49.25466431 25.81114014 49.10307861 26.87228027 48.94689941 27.96557617 C48.62919951 30.18416002 48.30980655 32.40250205 47.98876953 34.62060547 C47.49730977 38.01860051 47.01193445 41.4174255 46.52734375 44.81640625 C46.21650131 46.98182189 45.90531576 49.14718831 45.59375 51.3125 C45.44893188 52.32602539 45.30411377 53.33955078 45.15490723 54.38378906 C45.01806519 55.32577148 44.88122314 56.26775391 44.74023438 57.23828125 C44.62111694 58.06368408 44.50199951 58.88908691 44.37927246 59.73950195 C44.02568371 61.84692279 43.51826904 63.92692383 43 66 C38.05 66 33.1 66 28 66 C25.36 54.45 22.72 42.9 20 31 C17.40828109 42.14349305 17.40828109 42.14349305 14.82446289 53.28881836 C14.49914815 54.68089403 14.17356456 56.07290692 13.84765625 57.46484375 C13.59622864 58.55835144 13.59622864 58.55835144 13.33972168 59.6739502 C12.1140718 64.8859282 12.1140718 64.8859282 11 66 C8.66839945 66.09909302 6.33370058 66.12970504 4 66.125 C2.72125 66.12757813 1.4425 66.13015625 0.125 66.1328125 C-3 66 -3 66 -4 65 C-4.329165 63.2579074 -4.60039024 61.50482303 -4.84790039 59.74926758 C-5.08803612 58.06665581 -5.08803612 58.06665581 -5.33302307 56.35005188 C-5.50285202 55.12723007 -5.67268097 53.90440826 -5.84765625 52.64453125 C-6.02380966 51.39500168 -6.19996307 50.14547211 -6.38145447 48.858078 C-6.75418173 46.20602588 -7.12518359 43.55379761 -7.4934082 40.90112305 C-7.96408495 37.51212897 -8.44217683 34.1242319 -8.92260075 30.73660755 C-9.38082758 27.49814729 -9.83270966 24.25880333 -10.28515625 21.01953125 C-10.45700943 19.8068306 -10.62886261 18.59412994 -10.80592346 17.34468079 C-10.96286179 16.2071788 -11.11980011 15.06967682 -11.28149414 13.89770508 C-11.42059708 12.90144608 -11.55970001 11.90518707 -11.70301819 10.8787384 C-12.01045454 7.89866082 -12.05108988 4.99371423 -12 2 C-8.09971775 -0.60018816 -4.52565431 -0.15085514 0 0 Z " fill="#245809" transform="translate(106,96)"/>
<path d="M0 0 C1.10118164 -0.0309375 1.10118164 -0.0309375 2.22460938 -0.0625 C7.46021562 -0.09966491 11.03452062 0.82004508 15.6875 3.25 C19.26519148 6.94694786 19.80426576 10.72430588 19.84863281 15.72387695 C19.85824036 16.60191483 19.8678479 17.4799527 19.87774658 18.38459778 C19.88199646 19.32631332 19.88624634 20.26802887 19.890625 21.23828125 C19.89632507 22.21484177 19.90202515 23.19140228 19.90789795 24.19755554 C19.91733651 26.26279623 19.92387738 28.3280519 19.92773438 30.39331055 C19.93743212 33.54047143 19.9684634 36.68697689 20 39.83398438 C20.00653135 41.84374614 20.0117813 43.85351255 20.015625 45.86328125 C20.0279718 46.7989241 20.0403186 47.73456696 20.05303955 48.69856262 C20.03400142 54.32857858 19.37436034 58.27122527 16.6875 63.25 C12.24366673 67.54423889 6.05757196 66.76456444 0.25 66.75 C-0.77416016 66.77835937 -1.79832031 66.80671875 -2.85351562 66.8359375 C-11.2627695 66.85770903 -11.2627695 66.85770903 -14.91015625 64.21875 C-19.61938026 58.39922114 -19.61513651 51.41076734 -19.578125 44.21875 C-19.58003845 43.38339722 -19.5819519 42.54804443 -19.58392334 41.68737793 C-19.58527581 39.93269548 -19.58164544 38.1780027 -19.57324219 36.42333984 C-19.56252915 33.75725554 -19.57316947 31.09184492 -19.5859375 28.42578125 C-19.58461574 26.71093603 -19.582053 24.99609123 -19.578125 23.28125 C-19.58217346 22.49455933 -19.58622192 21.70786865 -19.59039307 20.89733887 C-19.53659021 14.45921679 -19.11375304 8.4778656 -14.9375 3.3125 C-10.35735552 -0.28618495 -5.65844337 0.03912493 0 0 Z M-5.3125 14.25 C-5.3125 27.12 -5.3125 39.99 -5.3125 53.25 C-1.6825 53.25 1.9475 53.25 5.6875 53.25 C7.73263053 51.20486947 6.85154679 46.94094822 6.85546875 44.12890625 C6.85879715 43.31381088 6.86212555 42.49871552 6.86555481 41.65892029 C6.87062742 39.93139207 6.87296303 38.20385402 6.87280273 36.47631836 C6.87498792 33.82714755 6.89313621 31.17839384 6.91210938 28.52929688 C6.91504344 26.8541681 6.91702815 25.17903733 6.91796875 23.50390625 C6.92515427 22.70803604 6.93233978 21.91216583 6.93974304 21.09217834 C7.09772877 16.70291907 7.09772877 16.70291907 4.6875 13.25 C2.77569451 12.96994942 2.77569451 12.96994942 0.6875 13.0625 C-0.364375 13.07216797 -0.364375 13.07216797 -1.4375 13.08203125 C-3.40306373 13.14293867 -3.40306373 13.14293867 -5.3125 14.25 Z " fill="#235908" transform="translate(340.3125,95.75)"/>
<path d="M0 0 C1.093125 0.00257812 2.18625 0.00515625 3.3125 0.0078125 C4.405625 0.00523438 5.49875 0.00265625 6.625 0 C9.3125 0.1328125 9.3125 0.1328125 10.3125 1.1328125 C10.46936249 2.69229792 10.56326639 4.25823918 10.62890625 5.82421875 C10.69174805 7.24057617 10.69174805 7.24057617 10.75585938 8.68554688 C10.79517578 9.67876953 10.83449219 10.67199219 10.875 11.6953125 C10.91818359 12.69240234 10.96136719 13.68949219 11.00585938 14.71679688 C11.11230298 17.188654 11.21431928 19.6606156 11.3125 22.1328125 C11.66554199 21.50189697 12.01858398 20.87098145 12.38232422 20.22094727 C13.97845489 17.37588765 15.58285198 14.53557621 17.1875 11.6953125 C17.74308594 10.70208984 18.29867187 9.70886719 18.87109375 8.68554688 C19.67353516 7.26918945 19.67353516 7.26918945 20.4921875 5.82421875 C21.23057861 4.51239624 21.23057861 4.51239624 21.98388672 3.17407227 C23.3125 1.1328125 23.3125 1.1328125 25.3125 0.1328125 C27.35305005 0.06215633 29.39584257 0.04859274 31.4375 0.0703125 C32.53320312 0.07933594 33.62890625 0.08835937 34.7578125 0.09765625 C36.02238281 0.11505859 36.02238281 0.11505859 37.3125 0.1328125 C38.3125 3.1328125 38.3125 3.1328125 37.01733398 5.85668945 C36.37094971 6.93394287 35.72456543 8.01119629 35.05859375 9.12109375 C34.36206701 10.31412449 33.66612159 11.50749478 32.97070312 12.70117188 C31.86334281 14.57541173 30.74993053 16.44542763 29.62524414 18.30932617 C28.54323287 20.11156535 27.48731033 21.92720755 26.43359375 23.74609375 C25.7883374 24.82673096 25.14308105 25.90736816 24.47827148 27.02075195 C23.02511488 30.0649636 23.02511488 30.0649636 23.91381836 33.11694336 C25.41992879 36.3644529 26.94302428 39.58440778 28.5703125 42.7734375 C28.87822723 43.38169373 29.18614197 43.98994995 29.50338745 44.61663818 C30.47753898 46.54069954 31.45686003 48.46205089 32.4375 50.3828125 C33.73633925 52.92739976 35.02990789 55.47456458 36.3203125 58.0234375 C36.89410645 59.14782227 37.46790039 60.27220703 38.05908203 61.43066406 C39.3125 64.1328125 39.3125 64.1328125 39.3125 66.1328125 C34.3625 66.1328125 29.4125 66.1328125 24.3125 66.1328125 C20.6825 58.8728125 17.0525 51.6128125 13.3125 44.1328125 C11.26122156 47.20973016 11.03989128 48.06926249 10.8984375 51.58203125 C10.84042969 52.85336914 10.84042969 52.85336914 10.78125 54.15039062 C10.73484375 55.47200195 10.73484375 55.47200195 10.6875 56.8203125 C10.62949219 58.15932617 10.62949219 58.15932617 10.5703125 59.52539062 C10.47610349 61.72752628 10.39321506 63.93014097 10.3125 66.1328125 C5.6925 66.1328125 1.0725 66.1328125 -3.6875 66.1328125 C-3.71005381 57.67513519 -3.7284167 49.21748109 -3.73931217 40.75978184 C-3.74454031 36.83292592 -3.75163669 32.90609156 -3.76293945 28.97924805 C-3.7737708 25.19266993 -3.77977736 21.4061126 -3.78237724 17.61952019 C-3.78423105 16.17176931 -3.78785081 14.72401962 -3.79323006 13.27627754 C-3.80044367 11.25524115 -3.80090808 9.23418402 -3.80102539 7.21313477 C-3.803246 6.06063736 -3.80546661 4.90813995 -3.80775452 3.72071838 C-3.64308601 0.17701277 -3.55287546 0.17557815 0 0 Z " fill="#245909" transform="translate(235.6875,95.8671875)"/>
<path d="M0 0 C0.78632813 -0.020625 1.57265625 -0.04125 2.3828125 -0.0625 C7.76491279 -0.09826146 11.55386373 0.53615241 16.25 3.25 C19.68614142 7.17403168 19.62379841 11.07065793 19.4375 16.0625 C19.41719727 17.10180664 19.41719727 17.10180664 19.39648438 18.16210938 C19.36138845 19.85841265 19.30758943 21.55431136 19.25 23.25 C15.29 23.25 11.33 23.25 7.25 23.25 C6.59 20.28 5.93 17.31 5.25 14.25 C0.74774076 14.15785142 0.74774076 14.15785142 -3.75 14.25 C-5.15625551 15.42829585 -5.15625551 15.42829585 -4.86352539 18.76000977 C-4.86336626 20.32048422 -4.85767142 21.88096393 -4.84765625 23.44140625 C-4.84553383 24.67116432 -4.84553383 24.67116432 -4.84336853 25.92576599 C-4.83775289 28.55471382 -4.82519779 31.18357773 -4.8125 33.8125 C-4.80748701 35.59049357 -4.80292376 37.36848846 -4.79882812 39.14648438 C-4.78777839 43.51435545 -4.77050331 47.88216348 -4.75 52.25 C-1.12 52.58 2.51 52.91 6.25 53.25 C6.58 49.95 6.91 46.65 7.25 43.25 C6.280625 43.270625 5.31125 43.29125 4.3125 43.3125 C1.25 43.25 1.25 43.25 0.25 42.25 C0.15126184 40.25200428 0.12028201 38.25042842 0.125 36.25 C0.12242187 35.156875 0.11984375 34.06375 0.1171875 32.9375 C0.25 30.25 0.25 30.25 1.25 29.25 C2.59267413 29.16368126 3.93974322 29.14293527 5.28515625 29.15234375 C6.09404297 29.15556641 6.90292969 29.15878906 7.73632812 29.16210938 C8.58646484 29.17048828 9.43660156 29.17886719 10.3125 29.1875 C11.16650391 29.19201172 12.02050781 29.19652344 12.90039062 29.20117188 C15.01695663 29.21299627 17.13348685 29.23093231 19.25 29.25 C19.37422509 33.41249607 19.46462647 37.5739917 19.5246582 41.73779297 C19.54969925 43.15204682 19.58374342 44.56617257 19.62719727 45.97998047 C20.02476404 59.25403352 20.02476404 59.25403352 16.85546875 63.1484375 C11.81598128 67.21327147 7.21338139 66.4694046 0.9375 66.5 C-0.63161133 66.5309375 -0.63161133 66.5309375 -2.23242188 66.5625 C-3.24498047 66.56765625 -4.25753906 66.5728125 -5.30078125 66.578125 C-6.22544189 66.5874707 -7.15010254 66.59681641 -8.1027832 66.60644531 C-11.40592621 66.16168014 -13.13247476 65.318316 -15.75 63.25 C-19.4631963 58.01237484 -19.1867503 52.76573198 -19.1484375 46.59375 C-19.15274277 45.06300842 -19.15274277 45.06300842 -19.15713501 43.50134277 C-19.15917108 41.34968509 -19.15367327 39.19800871 -19.14111328 37.04638672 C-19.12505363 33.76097048 -19.14097802 30.47678442 -19.16015625 27.19140625 C-19.15817374 25.09635146 -19.1543299 23.00129744 -19.1484375 20.90625 C-19.15451019 19.92797241 -19.16058289 18.94969482 -19.1668396 17.94177246 C-19.11228022 12.62714296 -18.7479079 8.83514324 -15.75 4.25 C-10.99299239 -0.06103815 -6.14787199 0.03953615 0 0 Z " fill="#25590A" transform="translate(386.75,95.75)"/>
<path d="M0 0 C0.79019531 -0.020625 1.58039063 -0.04125 2.39453125 -0.0625 C7.40116168 -0.095822 10.77680384 0.49814621 15.125 3.25 C19.34416729 7.90563287 19.25576503 12.4249266 19.1875 18.4375 C19.18298828 19.18708984 19.17847656 19.93667969 19.17382812 20.70898438 C19.16206354 22.55602383 19.14412865 24.40302213 19.125 26.25 C14.835 26.25 10.545 26.25 6.125 26.25 C5.78320312 22.00195312 5.78320312 22.00195312 5.44140625 17.75390625 C5.39288532 15.31359221 5.39288532 15.31359221 4.125 14.25 C0.825 14.25 -2.475 14.25 -5.875 14.25 C-5.875 27.12 -5.875 39.99 -5.875 53.25 C-2.575 53.25 0.725 53.25 4.125 53.25 C6.25079497 51.12420503 5.57171369 46.59787605 5.74609375 43.71875 C5.87113281 42.9040625 5.99617188 42.089375 6.125 41.25 C8.49113456 40.06693272 9.99280736 40.11645392 12.625 40.125 C13.81609375 40.12113281 13.81609375 40.12113281 15.03125 40.1171875 C17.125 40.25 17.125 40.25 19.125 41.25 C19.70094536 57.82442772 19.70094536 57.82442772 16.125 63.25 C11.32603446 67.44413724 5.57083062 66.65585504 -0.4375 66.5625 C-1.47841797 66.56572266 -2.51933594 66.56894531 -3.59179688 66.57226562 C-12.29278728 66.51071521 -12.29278728 66.51071521 -15.875 64.25 C-20.36605691 58.26192412 -20.04078802 51.39717907 -20.078125 44.23046875 C-20.08382507 43.3724617 -20.08952515 42.51445465 -20.09539795 41.63044739 C-20.10481018 39.82094542 -20.11136684 38.01142661 -20.11523438 36.2019043 C-20.12493267 33.45655941 -20.15598877 30.71196624 -20.1875 27.96679688 C-20.19403214 26.20052523 -20.19928178 24.43424829 -20.203125 22.66796875 C-20.2154718 21.85829147 -20.2278186 21.0486142 -20.24053955 20.21440125 C-20.21631904 13.91304467 -19.49060955 6.94998405 -14.9375 2.25 C-10.09525739 -0.09775399 -5.27488153 0.03408647 0 0 Z " fill="#245909" transform="translate(204.875,95.75)"/>
<path d="M0 0 C1.093125 0.00257812 2.18625 0.00515625 3.3125 0.0078125 C4.405625 0.00523438 5.49875 0.00265625 6.625 0 C9.3125 0.1328125 9.3125 0.1328125 10.3125 1.1328125 C10.40590434 2.75956028 10.42995171 4.39035301 10.42602539 6.01977539 C10.42594986 7.06077896 10.42587433 8.10178253 10.42579651 9.17433167 C10.42063522 10.3066069 10.41547394 11.43888214 10.41015625 12.60546875 C10.4087413 13.75824814 10.40732635 14.91102753 10.40586853 16.09873962 C10.40025005 19.79762314 10.38769442 23.49644714 10.375 27.1953125 C10.36998738 29.69596267 10.36542406 32.19661379 10.36132812 34.69726562 C10.35027462 40.84246838 10.33351852 46.98763619 10.3125 53.1328125 C11.16799438 53.12495728 11.16799438 53.12495728 12.04077148 53.11694336 C14.61050323 53.09623029 17.18021747 53.0831706 19.75 53.0703125 C20.64783203 53.06193359 21.54566406 53.05355469 22.47070312 53.04492188 C23.32470703 53.04169922 24.17871094 53.03847656 25.05859375 53.03515625 C25.84935303 53.02991943 26.6401123 53.02468262 27.45483398 53.01928711 C29.3125 53.1328125 29.3125 53.1328125 30.3125 54.1328125 C30.3125 58.0928125 30.3125 62.0528125 30.3125 66.1328125 C19.0925 66.1328125 7.8725 66.1328125 -3.6875 66.1328125 C-3.72760881 49.9511362 -3.72760881 49.9511362 -3.73632812 43.07617188 C-3.74231585 38.37718584 -3.74941425 33.67821922 -3.76293945 28.97924805 C-3.7737708 25.19266993 -3.77977736 21.4061126 -3.78237724 17.61952019 C-3.78423105 16.17176931 -3.78785081 14.72401962 -3.79323006 13.27627754 C-3.80044367 11.25524115 -3.80090808 9.23418402 -3.80102539 7.21313477 C-3.803246 6.06063736 -3.80546661 4.90813995 -3.80775452 3.72071838 C-3.64308601 0.17701277 -3.55287546 0.17557815 0 0 Z " fill="#26590A" transform="translate(285.6875,95.8671875)"/>
<path d="M0 0 C4.29 0 8.58 0 13 0 C13.16999715 6.50614935 13.33025237 13.01244649 13.48217773 19.51904297 C13.5349561 21.72418386 13.59021893 23.92926695 13.64819336 26.13427734 C13.99729887 39.48528649 14.02120731 52.67851565 13 66 C2.94140625 66.09765625 2.94140625 66.09765625 0 66 C-1.78893102 64.21106898 -1.12766464 61.55056041 -1.12939453 59.13500977 C-1.13254669 57.88023331 -1.13569885 56.62545685 -1.13894653 55.33265686 C-1.13715656 53.95223964 -1.13510556 52.57182273 -1.1328125 51.19140625 C-1.13348565 49.78515099 -1.13445578 48.37889585 -1.13571167 46.97264099 C-1.13718858 44.02105607 -1.13503463 41.06950134 -1.13037109 38.11791992 C-1.12467902 34.33025229 -1.12794952 30.54265559 -1.13394356 26.75499058 C-1.13755381 23.84941573 -1.13640835 20.94385775 -1.13381577 18.03828239 C-1.13314751 16.64160084 -1.13397139 15.24491777 -1.13629532 13.84823799 C-1.13882882 11.89695387 -1.13428411 9.9456644 -1.12939453 7.99438477 C-1.12859894 6.88265396 -1.12780334 5.77092316 -1.12698364 4.62550354 C-1 2 -1 2 0 0 Z " fill="#25560A" transform="translate(164,96)"/>
<path d="M0 0 C0.721875 0.268125 1.44375 0.53625 2.1875 0.8125 C2.125625 1.740625 2.06375 2.66875 2 3.625 C1.87855736 6.79645103 1.87855736 6.79645103 3.6875 8.6875 C4.1825 9.05875 4.6775 9.43 5.1875 9.8125 C5.76113281 9.44640625 6.33476562 9.0803125 6.92578125 8.703125 C9.1875 7.8125 9.1875 7.8125 11.29296875 8.421875 C11.98003906 8.79828125 12.66710937 9.1746875 13.375 9.5625 C14.06980469 9.92859375 14.76460938 10.2946875 15.48046875 10.671875 C17.1875 11.8125 17.1875 11.8125 18.1875 13.8125 C18.34418519 16.40125226 18.445842 18.96729057 18.50390625 21.55859375 C18.52468735 22.32551041 18.54546844 23.09242706 18.56687927 23.88258362 C18.6323277 26.33829683 18.69118946 28.79411975 18.75 31.25 C18.79319766 32.9017038 18.83681236 34.55339675 18.88085938 36.20507812 C19.1875 47.8995506 19.1875 47.8995506 19.1875 51.8125 C14.60558226 54.17736077 10.22693886 54.21829751 5.1875 53.8125 C4.1975 53.4825 3.2075 53.1525 2.1875 52.8125 C2.1875 45.5525 2.1875 38.2925 2.1875 30.8125 C2.5175 30.8125 2.8475 30.8125 3.1875 30.8125 C3.5175 37.7425 3.8475 44.6725 4.1875 51.8125 C9.6325 51.3175 9.6325 51.3175 15.1875 50.8125 C15.21214928 45.56144558 15.23033568 40.31042455 15.24243164 35.05932617 C15.24747218 33.27155979 15.25430454 31.48379755 15.26293945 29.69604492 C15.2750173 27.13198832 15.28073094 24.56798603 15.28515625 22.00390625 C15.29031754 21.1997377 15.29547882 20.39556915 15.30079651 19.56703186 C15.30099215 17.64848285 15.24951983 15.73004632 15.1875 13.8125 C14.12771067 12.52637324 14.12771067 12.52637324 11.68359375 12.71484375 C10.67425781 12.72644531 9.66492188 12.73804687 8.625 12.75 C7.61308594 12.75902344 6.60117187 12.76804687 5.55859375 12.77734375 C4.77613281 12.78894531 3.99367188 12.80054687 3.1875 12.8125 C2.8575 13.4725 2.5275 14.1325 2.1875 14.8125 C-0.125 15.0625 -0.125 15.0625 -2.8125 14.8125 C-4.625 12.8125 -4.625 12.8125 -5.8125 10.8125 C-6.83613611 14.23411766 -6.99518875 17.44962066 -7.09375 21.01171875 C-7.14982422 22.82639648 -7.14982422 22.82639648 -7.20703125 24.67773438 C-7.24183594 25.93908203 -7.27664063 27.20042969 -7.3125 28.5 C-7.53176186 36.32439997 -7.80279869 44.04621411 -8.8125 51.8125 C-9.1425 51.8125 -9.4725 51.8125 -9.8125 51.8125 C-9.86220314 46.40479854 -9.89836241 40.9972322 -9.92236328 35.58935547 C-9.93237648 33.75241782 -9.94599102 31.91549593 -9.96337891 30.07861328 C-9.98783422 27.42736911 -9.99903013 24.776337 -10.0078125 22.125 C-10.01813507 21.31321289 -10.02845764 20.50142578 -10.03909302 19.66503906 C-10.04036708 13.0847838 -9.58345183 7.15781459 -5.5 1.75 C-2.8125 -0.1875 -2.8125 -0.1875 0 0 Z " fill="#2A5112" transform="translate(330.8125,97.1875)"/>
<path d="M0 0 C0.66 0 1.32 0 2 0 C4.20949832 4.41029783 4.2370648 8.48940324 4.125 13.3125 C4.11597656 14.05306641 4.10695312 14.79363281 4.09765625 15.55664062 C4.07424213 17.37123467 4.03837615 19.18566071 4 21 C-0.29 21 -4.58 21 -9 21 C-9.34179688 16.75195312 -9.34179688 16.75195312 -9.68359375 12.50390625 C-9.73211468 10.06359221 -9.73211468 10.06359221 -11 9 C-14.3 9 -17.6 9 -21 9 C-21 21.87 -21 34.74 -21 48 C-12.11803399 48.74535599 -12.11803399 48.74535599 -9 47 C-9.33 48.32 -9.66 49.64 -10 51 C-15.07524347 51.20715279 -19.2371083 50.83188142 -24 49 C-25.9375 46.875 -25.9375 46.875 -27 45 C-25.68 44.34 -24.36 43.68 -23 43 C-23 31.45 -23 19.9 -23 8 C-20.27976922 6.63988461 -18.0338119 6.7937569 -15 6.75 C-13.9275 6.72421875 -12.855 6.6984375 -11.75 6.671875 C-10.8425 6.78015625 -9.935 6.8884375 -9 7 C-6.07667731 11.38498404 -6.8643498 14.7774672 -7 20 C-3.7 20 -0.4 20 3 20 C3 15.38 3 10.76 3 6 C1.35 5.34 -0.3 4.68 -2 4 C-1.34 2.68 -0.68 1.36 0 0 Z " fill="#31541A" transform="translate(220,101)"/>
<path d="M0 0 C2.6881249 -0.08164159 5.373723 -0.14079668 8.0625 -0.1875 C8.81466797 -0.21263672 9.56683594 -0.23777344 10.34179688 -0.26367188 C15.67179753 -0.33289266 19.26768415 0.50994364 24 3 C27.57769148 6.69694786 28.11676576 10.47430588 28.16113281 15.47387695 C28.17074036 16.35191483 28.1803479 17.2299527 28.19024658 18.13459778 C28.19449646 19.07631332 28.19874634 20.01802887 28.203125 20.98828125 C28.20882507 21.96484177 28.21452515 22.94140228 28.22039795 23.94755554 C28.22983651 26.01279623 28.23637738 28.0780519 28.24023438 30.14331055 C28.24993212 33.29047143 28.2809634 36.43697689 28.3125 39.58398438 C28.31903135 41.59374614 28.3242813 43.60351255 28.328125 45.61328125 C28.3404718 46.5489241 28.3528186 47.48456696 28.36553955 48.44856262 C28.34657513 54.0567798 27.76111588 58.07148181 25 63 C22.3125 64.4375 22.3125 64.4375 20 65 C20.66 63.02 21.32 61.04 22 59 C22.99 59 23.98 59 25 59 C26.05273641 50.9294289 26.21836456 42.87627888 26.24023438 34.75073242 C26.24996758 32.56976552 26.28110468 30.38973272 26.3125 28.20898438 C26.4080947 16.30058582 26.4080947 16.30058582 23 5 C16.39771387 0.6831206 7.71402955 1.29128497 0 1 C0 0.67 0 0.34 0 0 Z " fill="#2C4D16" transform="translate(332,96)"/>
<path d="M0 0 C1.093125 0.00257812 2.18625 0.00515625 3.3125 0.0078125 C4.405625 0.00523438 5.49875 0.00265625 6.625 0 C9.3125 0.1328125 9.3125 0.1328125 10.3125 1.1328125 C10.39919432 2.6215311 10.41953494 4.1142575 10.41015625 5.60546875 C10.40693359 6.50458984 10.40371094 7.40371094 10.40039062 8.33007812 C10.39201172 9.27560547 10.38363281 10.22113281 10.375 11.1953125 C10.37048828 12.14470703 10.36597656 13.09410156 10.36132812 14.07226562 C10.3495011 16.42584315 10.33302025 18.77929727 10.3125 21.1328125 C9.6525 21.4628125 8.9925 21.7928125 8.3125 22.1328125 C8.33570313 21.52953125 8.35890625 20.92625 8.3828125 20.3046875 C8.40085938 19.50546875 8.41890625 18.70625 8.4375 17.8828125 C8.46070313 17.09390625 8.48390625 16.305 8.5078125 15.4921875 C8.29349726 12.9032594 7.5068338 11.40951131 6.3125 9.1328125 C6.1875 5.8828125 6.1875 5.8828125 6.3125 3.1328125 C4.0025 2.4728125 1.6925 1.8128125 -0.6875 1.1328125 C-0.666875 2.1021875 -0.64625 3.0715625 -0.625 4.0703125 C-0.6875 7.1328125 -0.6875 7.1328125 -1.6875 8.1328125 C-1.8099331 9.63598019 -1.86526285 11.14469417 -1.89282227 12.65258789 C-1.91276749 13.61350845 -1.93271271 14.57442902 -1.95326233 15.56446838 C-1.96997482 16.6092485 -1.98668732 17.65402863 -2.00390625 18.73046875 C-2.02468735 19.79446396 -2.04546844 20.85845917 -2.06687927 21.95469666 C-2.13249254 25.3681669 -2.19131423 28.78171679 -2.25 32.1953125 C-2.29317403 34.50326359 -2.33678794 36.8112065 -2.38085938 39.11914062 C-2.48818584 44.79027932 -2.58992992 50.46149802 -2.6875 56.1328125 C-3.0175 56.1328125 -3.3475 56.1328125 -3.6875 56.1328125 C-3.71276563 48.31828498 -3.73033105 40.50376792 -3.74243164 32.68920898 C-3.74747383 30.02839769 -3.75430736 27.36758918 -3.76293945 24.70678711 C-3.77501009 20.89175734 -3.78072929 17.07676406 -3.78515625 13.26171875 C-3.79031754 12.06382217 -3.79547882 10.8659256 -3.80079651 9.63172913 C-3.80087204 8.5306633 -3.80094757 7.42959747 -3.80102539 6.29516602 C-3.803246 5.32031754 -3.80546661 4.34546906 -3.80775452 3.34107971 C-3.62976601 0.07262712 -3.30153875 0.16315744 0 0 Z " fill="#2E5014" transform="translate(235.6875,95.8671875)"/>
<path d="M0 0 C1.85625 0.061875 1.85625 0.061875 3.75 0.125 C5.3819201 3.79534737 6.15076821 7.06941383 6.6015625 11.0546875 C6.73046875 12.18003906 6.859375 13.30539063 6.9921875 14.46484375 C7.11851563 15.63144531 7.24484375 16.79804687 7.375 18 C7.5090625 19.15886719 7.643125 20.31773438 7.78125 21.51171875 C8.40479258 27.07906326 8.92967716 32.52233952 8.75 38.125 C8.42 38.125 8.09 38.125 7.75 38.125 C7.2676843 35.31300846 6.78908565 32.50046366 6.3125 29.6875 C6.17779297 28.90439453 6.04308594 28.12128906 5.90429688 27.31445312 C5.10660335 22.5866598 4.46543363 17.87969537 4.01757812 13.10546875 C3.63917062 10.30470083 2.76130621 7.75439614 1.75 5.125 C-0.23 5.455 -2.21 5.785 -4.25 6.125 C-4.91 8.435 -5.57 10.745 -6.25 13.125 C-6.58 13.125 -6.91 13.125 -7.25 13.125 C-7.58 9.495 -7.91 5.865 -8.25 2.125 C-4.63863788 0.31931894 -3.705469 -0.12351563 0 0 Z " fill="#274C0F" transform="translate(102.25,95.875)"/>
<path d="M0 0 C0.66 0 1.32 0 2 0 C2.33 0.99 2.66 1.98 3 3 C2.01 3.495 2.01 3.495 1 4 C0.34444881 6.52733235 0.34444881 6.52733235 0 9 C-0.66 9 -1.32 9 -2 9 C-1.67 24.84 -1.34 40.68 -1 57 C-0.34 57.33 0.32 57.66 1 58 C0.01 58 -0.98 58 -2 58 C-3.68310924 52.12649737 -4.30767766 46.87963975 -4.30078125 40.78515625 C-4.30506638 39.9299791 -4.3093515 39.07480194 -4.31376648 38.19371033 C-4.31947534 36.39615763 -4.32003565 34.59858186 -4.31567383 32.80102539 C-4.31251254 30.07332427 -4.33602054 27.34670822 -4.36132812 24.61914062 C-4.36360158 22.86198052 -4.3643044 21.10481753 -4.36328125 19.34765625 C-4.372491 18.54425308 -4.38170074 17.74084991 -4.39118958 16.9131012 C-4.3486402 11.62359826 -3.97322485 3.97322485 0 0 Z " fill="#254713" transform="translate(189,99)"/>
<path d="M0 0 C1.97909398 -0.02686553 3.95828971 -0.04633375 5.9375 -0.0625 C7.03964844 -0.07410156 8.14179688 -0.08570312 9.27734375 -0.09765625 C12 0 12 0 13 1 C13.09340434 2.62674778 13.11745171 4.25754051 13.11352539 5.88696289 C13.11344986 6.92796646 13.11337433 7.96897003 13.11329651 9.04151917 C13.10813522 10.1737944 13.10297394 11.30606964 13.09765625 12.47265625 C13.0962413 13.62543564 13.09482635 14.77821503 13.09336853 15.96592712 C13.08775005 19.66481064 13.07519442 23.36363464 13.0625 27.0625 C13.05748738 29.56315017 13.05292406 32.06380129 13.04882812 34.56445312 C13.03777462 40.70965851 13.0204976 46.85481915 13 53 C18.28 53 23.56 53 29 53 C27 55 27 55 23.8125 55.23046875 C22.554375 55.21628906 21.29625 55.20210937 20 55.1875 C18.741875 55.18105469 17.48375 55.17460937 16.1875 55.16796875 C13 55 13 55 11 54 C11.00444122 53.42006287 11.00888245 52.84012573 11.01345825 52.24261475 C11.05769569 46.20815494 11.08786816 40.17374118 11.10986328 34.13916016 C11.11992253 31.88686248 11.13357146 29.63457786 11.15087891 27.38232422 C11.17513031 24.14547502 11.1864839 20.90879845 11.1953125 17.671875 C11.20563507 16.66445251 11.21595764 15.65703003 11.22659302 14.61907959 C11.22681961 13.20806976 11.22681961 13.20806976 11.22705078 11.76855469 C11.231492 10.94248718 11.23593323 10.11641968 11.24050903 9.26531982 C10.9764553 6.77823583 10.11639437 5.20902545 9 3 C9.33 2.34 9.66 1.68 10 1 C6.7 1 3.4 1 0 1 C0 0.67 0 0.34 0 0 Z " fill="#2E4E16" transform="translate(283,96)"/>
<path d="M0 0 C0.74886475 0.00523682 1.49772949 0.01047363 2.26928711 0.01586914 C3.07817383 0.0190918 3.88706055 0.02231445 4.72045898 0.02563477 C5.5705957 0.03401367 6.42073242 0.04239258 7.29663086 0.05102539 C8.15063477 0.05553711 9.00463867 0.06004883 9.88452148 0.06469727 C12.00108749 0.07652166 14.11761771 0.0944577 16.23413086 0.11352539 C16.35816207 4.2943314 16.44866687 8.47415041 16.50878906 12.65625 C16.53386233 14.0773383 16.56793085 15.49829852 16.61132812 16.91894531 C16.67230944 18.96720001 16.70040848 21.01374422 16.72241211 23.06274414 C16.74859619 24.293396 16.77478027 25.52404785 16.80175781 26.79199219 C16.08536697 30.98403409 14.44307982 32.43755065 11.23413086 35.11352539 C11.70073047 32.46946092 12.22742853 30.12957037 13.26538086 27.64477539 C14.63473286 22.65326647 14.44548657 17.8866545 14.35913086 12.73852539 C14.35010742 11.71629883 14.34108398 10.69407227 14.33178711 9.64086914 C14.30833516 7.13151017 14.27551441 4.62264203 14.23413086 2.11352539 C12.13003447 2.08651131 10.02583908 2.06712316 7.92163086 2.05102539 C6.74987305 2.03942383 5.57811523 2.02782227 4.37084961 2.01586914 C1.20353891 1.96452641 1.20353891 1.96452641 -1.76586914 3.11352539 C-1.43586914 5.75352539 -1.10586914 8.39352539 -0.76586914 11.11352539 C0.55413086 11.44352539 1.87413086 11.77352539 3.23413086 12.11352539 C3.23413086 12.77352539 3.23413086 13.43352539 3.23413086 14.11352539 C1.56801181 14.15624639 -0.09969799 14.15416371 -1.76586914 14.11352539 C-2.76586914 13.11352539 -2.76586914 13.11352539 -2.89868164 10.42602539 C-2.89610352 9.33290039 -2.89352539 8.23977539 -2.89086914 7.11352539 C-2.89344727 6.02040039 -2.89602539 4.92727539 -2.89868164 3.80102539 C-2.71948021 0.17483178 -2.71948021 0.17483178 0 0 Z " fill="#2A4B16" transform="translate(389.765869140625,124.886474609375)"/>
<path d="M0 0 C0.33 0 0.66 0 1 0 C1 12.87 1 25.74 1 39 C9.88196601 39.74535599 9.88196601 39.74535599 13 38 C12.67 39.32 12.34 40.64 12 42 C6.92475653 42.20715279 2.7628917 41.83188142 -2 40 C-3.9375 37.875 -3.9375 37.875 -5 36 C-3.68 35.34 -2.36 34.68 -1 34 C-0.67 22.78 -0.34 11.56 0 0 Z " fill="#294813" transform="translate(198,110)"/>
<path d="M0 0 C0.5775 0.226875 1.155 0.45375 1.75 0.6875 C-0.25 2.6875 -0.25 2.6875 -2.25 2.9375 C-2.91 3.185 -3.57 3.4325 -4.25 3.6875 C-5.48757877 6.65010526 -5.48757877 6.65010526 -6.25 9.6875 C-6.58 10.0175 -6.91 10.3475 -7.25 10.6875 C-7.37209924 12.09867702 -7.42770872 13.51570459 -7.45532227 14.93188477 C-7.4852401 16.28317223 -7.4852401 16.28317223 -7.51576233 17.66175842 C-7.53247482 18.64091721 -7.54918732 19.62007599 -7.56640625 20.62890625 C-7.58718735 21.62631332 -7.60796844 22.6237204 -7.62937927 23.65135193 C-7.69498637 26.85082843 -7.75381134 30.05038982 -7.8125 33.25 C-7.85567462 35.41342039 -7.89928855 37.57683206 -7.94335938 39.74023438 C-8.05067903 45.05589874 -8.15242427 50.37164834 -8.25 55.6875 C-8.58 55.6875 -8.91 55.6875 -9.25 55.6875 C-9.32621035 49.10391677 -9.37866715 42.52044778 -9.41479492 35.93652344 C-9.42985964 33.69787342 -9.45031533 31.45925281 -9.47631836 29.22070312 C-9.51280283 25.99862398 -9.52974983 22.77693589 -9.54296875 19.5546875 C-9.55845261 18.55758759 -9.57393646 17.56048767 -9.58988953 16.53317261 C-9.59118715 11.14710806 -9.29979274 7.3339626 -6.25 2.6875 C-3.12804878 -0.43445122 -3.12804878 -0.43445122 0 0 Z " fill="#2E5017" transform="translate(377.25,97.3125)"/>
<path d="M0 0 C2.6881249 -0.08164159 5.373723 -0.14079668 8.0625 -0.1875 C8.81466797 -0.21263672 9.56683594 -0.23777344 10.34179688 -0.26367188 C15.66554482 -0.33281146 19.34903656 0.32322828 24 3 C27.43614142 6.92403168 27.37379841 10.82065793 27.1875 15.8125 C27.16719727 16.85180664 27.16719727 16.85180664 27.14648438 17.91210938 C27.11138845 19.60841265 27.05758943 21.30431136 27 23 C23.04 23 19.08 23 15 23 C15 22.67 15 22.34 15 22 C18.63 22 22.26 22 26 22 C25.79766165 19.76823823 25.56197726 17.53948507 25.3125 15.3125 C25.18488281 14.07113281 25.05726563 12.82976562 24.92578125 11.55078125 C23.82592998 7.33236434 22.35719302 5.71293409 19 3 C15.28720531 1.76240177 11.68693654 1.64391103 7.8125 1.4375 C7.06291016 1.39431641 6.31332031 1.35113281 5.54101562 1.30664062 C3.69421625 1.20077315 1.84713166 1.0999024 0 1 C0 0.67 0 0.34 0 0 Z " fill="#2F501B" transform="translate(379,96)"/>
<path d="M0 0 C0.99 0 1.98 0 3 0 C2.95875 1.0725 2.9175 2.145 2.875 3.25 C2.99392545 6.81776361 3.32152606 8.03798717 5 11 C6.02546448 14.72896175 5.97794977 16.08820093 5 20 C11.435 19.505 11.435 19.505 18 19 C17.67 19.66 17.34 20.32 17 21 C12.71 21 8.42 21 4 21 C3.32781493 18.25124318 2.66207565 15.50119274 2 12.75 C1.80921875 11.97269531 1.6184375 11.19539062 1.421875 10.39453125 C1.24140625 9.64042969 1.0609375 8.88632813 0.875 8.109375 C0.70742187 7.41811523 0.53984375 6.72685547 0.3671875 6.01464844 C0 4 0 4 0 0 Z " fill="#264D11" transform="translate(130,141)"/>
<path d="M0 0 C1.09570312 0.00902344 2.19140625 0.01804687 3.3203125 0.02734375 C4.16335938 0.03894531 5.00640625 0.05054687 5.875 0.0625 C6.205 1.0525 6.535 2.0425 6.875 3.0625 C6.215 3.7225 5.555 4.3825 4.875 5.0625 C4.875 3.7425 4.875 2.4225 4.875 1.0625 C3.781875 1.248125 2.68875 1.43375 1.5625 1.625 C-2.125 2.0625 -2.125 2.0625 -5.125 1.0625 C-5.455 2.0525 -5.785 3.0425 -6.125 4.0625 C-6.785 4.0625 -7.445 4.0625 -8.125 4.0625 C-8.5271875 5.6403125 -8.5271875 5.6403125 -8.9375 7.25 C-10.0035488 10.67257773 -11.01300223 13.19018304 -13.125 16.0625 C-14.115 16.3925 -15.105 16.7225 -16.125 17.0625 C-14.70510715 13.32162846 -13.02733408 9.83181806 -11.125 6.3125 C-10.3515625 4.86617188 -10.3515625 4.86617188 -9.5625 3.390625 C-7.0503017 -0.67804399 -4.49704303 -0.04784088 0 0 Z " fill="#2D4D14" transform="translate(267.125,95.9375)"/>
<path d="M0 0 C0.66 0.33 1.32 0.66 2 1 C2 1.66 2 2.32 2 3 C2.66 3.33 3.32 3.66 4 4 C3.34 5.98 2.68 7.96 2 10 C1.34 10 0.68 10 0 10 C0 10.66 0 11.32 0 12 C-3.63 12 -7.26 12 -11 12 C-11.33 11.34 -11.66 10.68 -12 10 C-8.37 10 -4.74 10 -1 10 C-0.67 6.7 -0.34 3.4 0 0 Z " fill="#2B4E12" transform="translate(394,139)"/>
<path d="M0 0 C2.97 0 5.94 0 9 0 C12.34821429 8.03571429 12.34821429 8.03571429 11 12 C10.49632243 10.54293274 9.99717444 9.08429904 9.5 7.625 C9.2215625 6.81289062 8.943125 6.00078125 8.65625 5.1640625 C8 3 8 3 8 1 C6.35 1 4.7 1 3 1 C2.67 2.32 2.34 3.64 2 5 C1.34 5 0.68 5 0 5 C-0.33 6.65 -0.66 8.3 -1 10 C-2.46726798 6.18510326 -1.43336419 3.70988378 0 0 Z " fill="#2B4E11" transform="translate(121,96)"/>
<path d="M0 0 C1.81242052 -0.02687279 3.62495233 -0.04633715 5.4375 -0.0625 C6.44683594 -0.07410156 7.45617187 -0.08570312 8.49609375 -0.09765625 C11 0 11 0 12 1 C11.86070601 5.01419961 11.40805226 9.00511802 11 13 C10.92652344 13.76441406 10.85304687 14.52882813 10.77734375 15.31640625 C10.5625 17.1875 10.5625 17.1875 10 20 C9.34 20.33 8.68 20.66 8 21 C8.33 14.73 8.66 8.46 9 2 C6.03 2 3.06 2 0 2 C0 1.34 0 0.68 0 0 Z " fill="#2A4C13" transform="translate(146,96)"/>
<path d="M0 0 C0.33 0 0.66 0 1 0 C1 3.96 1 7.92 1 12 C-8.57 12 -18.14 12 -28 12 C-28 11.67 -28 11.34 -28 11 C-26.82642944 10.96241577 -26.82642944 10.96241577 -25.62915039 10.92407227 C-22.10675051 10.80850212 -18.5846444 10.68560051 -15.0625 10.5625 C-13.83080078 10.52318359 -12.59910156 10.48386719 -11.33007812 10.44335938 C-9.5753418 10.38051758 -9.5753418 10.38051758 -7.78515625 10.31640625 C-6.70113525 10.27974854 -5.61711426 10.24309082 -4.50024414 10.20532227 C-2.060737 10.27635735 -2.060737 10.27635735 -1 9 C-0.76807135 7.48530552 -0.58784762 5.96245438 -0.4375 4.4375 C-0.35371094 3.61121094 -0.26992188 2.78492188 -0.18359375 1.93359375 C-0.09271484 0.97646484 -0.09271484 0.97646484 0 0 Z " fill="#294E14" transform="translate(315,150)"/>
<path d="M0 0 C3 2 3 2 3.71484375 3.640625 C4.12555064 7.03880252 3.84177156 10.35380104 3.5625 13.75 C3.51029297 14.44738281 3.45808594 15.14476563 3.40429688 15.86328125 C3.27525928 17.57596203 3.13840386 19.28805066 3 21 C2.67 21 2.34 21 2 21 C1.66034526 18.81347261 1.32857523 16.62571975 1 14.4375 C0.814375 13.21933594 0.62875 12.00117187 0.4375 10.74609375 C0.01444923 7.12372152 -0.07501425 3.64287954 0 0 Z " fill="#2A500F" transform="translate(96,112)"/>
<path d="M0 0 C0.33 0 0.66 0 1 0 C1 6.27 1 12.54 1 19 C-2.96 19 -6.92 19 -11 19 C-11 18.01 -11 17.02 -11 16 C-10.67 16.33 -10.34 16.66 -10 17 C-6.99668982 17.14193337 -4.00782866 17.04236378 -1 17 C-0.67 11.39 -0.34 5.78 0 0 Z " fill="#2D4D12" transform="translate(245,143)"/>
<path d="M0 0 C2.55914724 2.55914724 2.56934885 4.20441649 3.125 7.75 C3.29257813 8.77609375 3.46015625 9.8021875 3.6328125 10.859375 C3.99289478 13.93922772 4.06491813 16.90247797 4 20 C3.34 20 2.68 20 2 20 C1.66131223 17.79248152 1.32928311 15.58394089 1 13.375 C0.814375 12.14523438 0.62875 10.91546875 0.4375 9.6484375 C0.04597484 6.3833973 -0.08080924 3.28287549 0 0 Z " fill="#2A4F12" transform="translate(99,134)"/>
<path d="M0 0 C0.66 0 1.32 0 2 0 C4.20949832 4.41029783 4.2370648 8.48940324 4.125 13.3125 C4.11597656 14.05306641 4.10695312 14.79363281 4.09765625 15.55664062 C4.07424213 17.37123467 4.03837615 19.18566071 4 21 C3.67 21 3.34 21 3 21 C3 16.05 3 11.1 3 6 C0.525 5.01 0.525 5.01 -2 4 C-1.34 2.68 -0.68 1.36 0 0 Z " fill="#294D15" transform="translate(220,101)"/>
<path d="M0 0 C0.88935377 3.303314 1.46274105 6.62294375 2 10 C0.68 10.33 -0.64 10.66 -2 11 C-2 7.7 -2 4.4 -2 1 C-1.34 0.67 -0.68 0.34 0 0 Z " fill="#2F5518" transform="translate(213,136)"/>
<path d="M0 0 C0.99 0 1.98 0 3 0 C1.31326082 4.49797113 -0.81673892 8.72886302 -3 13 C-3.33 13 -3.66 13 -4 13 C-4.5497272 7.36529617 -2.95047835 4.61012242 0 0 Z " fill="#2B4D11" transform="translate(261,115)"/>
<path d="M0 0 C0.66 0 1.32 0 2 0 C2.02698422 2.43757413 2.04683099 4.87484915 2.0625 7.3125 C2.07087891 8.00279297 2.07925781 8.69308594 2.08789062 9.40429688 C2.10307906 12.5483025 2.00193327 14.99420019 1 18 C0.01 17.67 -0.98 17.34 -2 17 C-1.34 16.67 -0.68 16.34 0 16 C0.02703381 14.06257659 0.04641125 12.12504521 0.0625 10.1875 C0.07410156 9.10855469 0.08570313 8.02960938 0.09765625 6.91796875 C0.13624766 3.93487831 0.13624766 3.93487831 -1 1 C-0.67 0.67 -0.34 0.34 0 0 Z " fill="#284B11" transform="translate(222,137)"/>
<path d="M0 0 C2.32789515 2.83395931 3.07377893 4.29511572 4 8 C-0.62 8 -5.24 8 -10 8 C-10 7.67 -10 7.34 -10 7 C-6.37 7 -2.74 7 1 7 C0.67 4.69 0.34 2.38 0 0 Z " fill="#284912" transform="translate(271,154)"/>
<path d="M0 0 C1.65 0 3.3 0 5 0 C2.53846154 4.8 2.53846154 4.8 -0.1875 5.8125 C-0.785625 5.874375 -1.38375 5.93625 -2 6 C-1.34 4.02 -0.68 2.04 0 0 Z " fill="#26480C" transform="translate(354,155)"/>
<path d="M0 0 C0.33 0.99 0.66 1.98 1 3 C1.99 3.33 2.98 3.66 4 4 C4.33 5.98 4.66 7.96 5 10 C0.07692308 5.69230769 0.07692308 5.69230769 -0.3125 2.1875 C-0.209375 1.465625 -0.10625 0.74375 0 0 Z " fill="#2A4D14" transform="translate(322,150)"/>
<path d="M0 0 C1.9375 0.75 1.9375 0.75 4 2 C4.75 4.125 4.75 4.125 5 6 C3.68 6.33 2.36 6.66 1 7 C0.34 5.02 -0.32 3.04 -1 1 C-0.67 0.67 -0.34 0.34 0 0 Z " fill="#264C0C" transform="translate(137,130)"/>
<path d="M0 0 C0.66 0 1.32 0 2 0 C2 0.66 2 1.32 2 2 C2.66 2 3.32 2 4 2 C4 2.66 4 3.32 4 4 C2.35 4.66 0.7 5.32 -1 6 C-1.33 5.01 -1.66 4.02 -2 3 C-1.34 2.01 -0.68 1.02 0 0 Z " fill="#205B05" transform="translate(327,100)"/>
<path d="M0 0 C1.07310858 3.27185553 0.89263102 5.42947592 0.0625 8.75 C-0.13214844 9.54921875 -0.32679687 10.3484375 -0.52734375 11.171875 C-0.68332031 11.77515625 -0.83929688 12.3784375 -1 13 C-1.33 13 -1.66 13 -2 13 C-2.05416188 11.39620659 -2.09286638 9.79188594 -2.125 8.1875 C-2.14820312 7.29417969 -2.17140625 6.40085938 -2.1953125 5.48046875 C-2 3 -2 3 0 0 Z " fill="#234810" transform="translate(123,131)"/>
<path d="M0 0 C0.66 0.33 1.32 0.66 2 1 C1.88601335 2.62580966 1.75844341 4.25067157 1.625 5.875 C1.52058594 7.23238281 1.52058594 7.23238281 1.4140625 8.6171875 C1 11 1 11 -1 13 C-2.07310858 9.72814447 -1.89263102 7.57052408 -1.0625 4.25 C-0.86785156 3.45078125 -0.67320313 2.6515625 -0.47265625 1.828125 C-0.31667969 1.22484375 -0.16070312 0.6215625 0 0 Z " fill="#2B4B11" transform="translate(114,123)"/>
<path d="M0 0 C2.64465038 3.1254959 3.84414715 6.08788267 5 10 C3.02 8.35 1.04 6.7 -1 5 C-0.67 3.35 -0.34 1.7 0 0 Z " fill="#2A4C14" transform="translate(266,144)"/>
<path d="M0 0 C0.763125 0.20625 1.52625 0.4125 2.3125 0.625 C-0.3730594 3.3105594 -3.06371328 3.68549974 -6.6875 4.625 C-5.39900677 0.7595203 -4.17039106 -0.58191503 0 0 Z " fill="#2C4E14" transform="translate(330.6875,97.375)"/>
<path d="M0 0 C1.98 0.99 1.98 0.99 4 2 C4 4.64 4 7.28 4 10 C1.04816899 7.04816899 0.91336012 4.04488053 0 0 Z " fill="#2D5610" transform="translate(103,97)"/>
<path d="M0 0 C2.31 0 4.62 0 7 0 C6.01 0.33 5.02 0.66 4 1 C4 1.66 4 2.32 4 3 C2.35 3.33 0.7 3.66 -1 4 C-0.67 2.68 -0.34 1.36 0 0 Z " fill="#175304" transform="translate(214,136)"/>
<path d="M0 0 C1.32 0 2.64 0 4 0 C3.625 2.9375 3.625 2.9375 3 6 C2.01 6.495 2.01 6.495 1 7 C0.67 4.69 0.34 2.38 0 0 Z " fill="#214B0A" transform="translate(268,99)"/>
<path d="" fill="#FFFFFF" transform="translate(0,0)"/>
<path d="" fill="#FFFFFF" transform="translate(0,0)"/>
<path d="" fill="#FFFFFF" transform="translate(0,0)"/>
<path d="" fill="#FFFFFF" transform="translate(0,0)"/>
<path d="" fill="#FFFFFF" transform="translate(0,0)"/>
<path d="" fill="#FFFFFF" transform="translate(0,0)"/>
<path d="" fill="#FFFFFF" transform="translate(0,0)"/>
<path d="" fill="#FFFFFF" transform="translate(0,0)"/>
<path d="" fill="#FFFFFF" transform="translate(0,0)"/>
<path d="" fill="#FFFFFF" transform="translate(0,0)"/>
<path d="" fill="#FFFFFF" transform="translate(0,0)"/>
<path d="" fill="#FFFFFF" transform="translate(0,0)"/>
<path d="" fill="#FFFFFF" transform="translate(0,0)"/>
<path d="" fill="#FFFFFF" transform="translate(0,0)"/>
<path d="" fill="#FFFFFF" transform="translate(0,0)"/>
<path d="" fill="#FFFFFF" transform="translate(0,0)"/>
<path d="" fill="#FFFFFF" transform="translate(0,0)"/>
<path d="" fill="#FFFFFF" transform="translate(0,0)"/>
<path d="" fill="#FFFFFF" transform="translate(0,0)"/>
<path d="" fill="#FFFFFF" transform="translate(0,0)"/>
<path d="" fill="#FFFFFF" transform="translate(0,0)"/>
<path d="" fill="#FFFFFF" transform="translate(0,0)"/>
<path d="" fill="#FFFFFF" transform="translate(0,0)"/>
<path d="" fill="#FFFFFF" transform="translate(0,0)"/>
<path d="" fill="#FFFFFF" transform="translate(0,0)"/>
<path d="" fill="#FFFFFF" transform="translate(0,0)"/>
<path d="" fill="#FFFFFF" transform="translate(0,0)"/>
<path d="" fill="#FFFFFF" transform="translate(0,0)"/>
<path d="" fill="#FFFFFF" transform="translate(0,0)"/>
<path d="" fill="#FFFFFF" transform="translate(0,0)"/>
<path d="" fill="#FFFFFF" transform="translate(0,0)"/>
<path d="" fill="#FFFFFF" transform="translate(0,0)"/>
<path d="" fill="#FFFFFF" transform="translate(0,0)"/>
<path d="" fill="#FFFFFF" transform="translate(0,0)"/>
<path d="" fill="#FFFFFF" transform="translate(0,0)"/>
<path d="" fill="#FFFFFF" transform="translate(0,0)"/>
<path d="" fill="#FFFFFF" transform="translate(0,0)"/>
<path d="" fill="#FFFFFF" transform="translate(0,0)"/>
<path d="" fill="#FFFFFF" transform="translate(0,0)"/>
<path d="" fill="#FFFFFF" transform="translate(0,0)"/>
<path d="" fill="#FFFFFF" transform="translate(0,0)"/>
<path d="" fill="#FFFFFF" transform="translate(0,0)"/>
<path d="" fill="#FFFFFF" transform="translate(0,0)"/>
<path d="" fill="#FFFFFF" transform="translate(0,0)"/>
<path d="" fill="#FFFFFF" transform="translate(0,0)"/>
<path d="" fill="#FFFFFF" transform="translate(0,0)"/>
<path d="" fill="#FFFFFF" transform="translate(0,0)"/>
<path d="" fill="#FFFFFF" transform="translate(0,0)"/>
<path d="" fill="#FFFFFF" transform="translate(0,0)"/>
<path d="" fill="#FFFFFF" transform="translate(0,0)"/>
<path d="" fill="#FFFFFF" transform="translate(0,0)"/>
<path d="" fill="#FFFFFF" transform="translate(0,0)"/>
<path d="" fill="#FFFFFF" transform="translate(0,0)"/>
<path d="" fill="#FFFFFF" transform="translate(0,0)"/>
<path d="" fill="#FFFFFF" transform="translate(0,0)"/>
<path d="" fill="#FFFFFF" transform="translate(0,0)"/>
<path d="" fill="#FFFFFF" transform="translate(0,0)"/>
<path d="" fill="#FFFFFF" transform="translate(0,0)"/>
<path d="" fill="#FFFFFF" transform="translate(0,0)"/>
<path d="" fill="#FFFFFF" transform="translate(0,0)"/>
<path d="" fill="#FFFFFF" transform="translate(0,0)"/>
<path d="" fill="#FFFFFF" transform="translate(0,0)"/>
<path d="" fill="#FFFFFF" transform="translate(0,0)"/>
<path d="" fill="#FFFFFF" transform="translate(0,0)"/>
<path d="" fill="#FFFFFF" transform="translate(0,0)"/>
<path d="" fill="#FFFFFF" transform="translate(0,0)"/>
<path d="" fill="#FFFFFF" transform="translate(0,0)"/>
<path d="" fill="#FFFFFF" transform="translate(0,0)"/>
<path d="" fill="#FFFFFF" transform="translate(0,0)"/>
<path d="" fill="#FFFFFF" transform="translate(0,0)"/>
<path d="" fill="#FFFFFF" transform="translate(0,0)"/>
<path d="" fill="#FFFFFF" transform="translate(0,0)"/>
<path d="" fill="#FFFFFF" transform="translate(0,0)"/>
<path d="" fill="#FFFFFF" transform="translate(0,0)"/>
<path d="" fill="#FFFFFF" transform="translate(0,0)"/>
<path d="" fill="#FFFFFF" transform="translate(0,0)"/>
<path d="" fill="#FFFFFF" transform="translate(0,0)"/>
<path d="" fill="#FFFFFF" transform="translate(0,0)"/>
<path d="" fill="#FFFFFF" transform="translate(0,0)"/>
<path d="" fill="#FFFFFF" transform="translate(0,0)"/>
</svg>
